<svg xmlns="http://www.w3.org/2000/svg" viewBox="0 0 520 16"><polyline points="260.55,8.00 260.55,8.03 260.56,8.06 260.56,8.08 260.56,8.11 260.56,8.14 260.56,8.17 260.55,8.20 260.55,8.23 260.54,8.26 260.53,8.29 260.52,8.32 260.51,8.35 260.49,8.38 260.48,8.40 260.46,8.43 260.45,8.46 260.43,8.48 260.40,8.51 260.38,8.53 260.36,8.56 260.33,8.58 260.31,8.60 260.28,8.62 260.25,8.64 260.22,8.66 260.19,8.68 260.16,8.69 260.12,8.70 260.09,8.72 260.05,8.73 260.02,8.74 259.98,8.74 259.94,8.75 259.90,8.75 259.86,8.75 259.82,8.75 259.79,8.75 259.75,8.74 259.71,8.74 259.67,8.73 259.63,8.72 259.59,8.70 259.55,8.69 259.51,8.67 259.47,8.65 259.44,8.63 259.40,8.61 259.36,8.58 259.33,8.56 259.30,8.53 259.26,8.49 259.23,8.46 259.20,8.43 259.17,8.39 259.15,8.35 259.12,8.31 259.10,8.27 259.08,8.23 259.06,8.18 259.04,8.14 259.03,8.09 259.02,8.04 259.01,7.99 259.00,7.94 258.99,7.89 258.99,7.84 258.99,7.79 258.99,7.73 259.00,7.68 259.01,7.63 259.02,7.57 259.03,7.52 259.05,7.47 259.07,7.42 259.09,7.36 259.11,7.31 259.14,7.26 259.17,7.21 259.20,7.17 259.24,7.12 259.28,7.07 259.32,7.03 259.36,6.99 259.41,6.95 259.46,6.91 259.51,6.87 259.56,6.84 259.61,6.81 259.67,6.78 259.73,6.75 259.79,6.73 259.85,6.71 259.92,6.69 259.98,6.67 260.05,6.66 260.12,6.65 260.19,6.65 260.26,6.65 260.33,6.65 260.40,6.65 260.47,6.66 260.54,6.68 260.61,6.69 260.68,6.71 260.75,6.74 260.82,6.76 260.89,6.80 260.96,6.83 261.03,6.87 261.09,6.91 261.16,6.96 261.22,7.01 261.28,7.06 261.34,7.12 261.39,7.18 261.44,7.24 261.49,7.31 261.54,7.38 261.59,7.45 261.63,7.53 261.66,7.60 261.70,7.69 261.73,7.77 261.75,7.85 261.77,7.94 261.79,8.03 261.80,8.12 261.81,8.21 261.82,8.31 261.82,8.40 261.81,8.50 261.80,8.59 261.79,8.69 261.77,8.78 261.74,8.88 261.71,8.97 261.68,9.07 261.64,9.16 261.59,9.25 261.54,9.34 261.49,9.43 261.43,9.52 261.36,9.60 261.29,9.68 261.22,9.76 261.14,9.84 261.05,9.91 260.97,9.98 260.87,10.04 260.78,10.10 260.68,10.16 260.57,10.21 260.47,10.26 260.36,10.30 260.24,10.34 260.13,10.37 260.01,10.40 259.89,10.42 259.77,10.43 259.64,10.44 259.52,10.44 259.39,10.44 259.26,10.42 259.13,10.41 259.00,10.38 258.88,10.35 258.75,10.31 258.62,10.27 258.49,10.22 258.37,10.16 258.25,10.10 258.13,10.03 258.01,9.95 257.90,9.86 257.79,9.77 257.68,9.67 257.57,9.57 257.48,9.46 257.38,9.35 257.29,9.22 257.21,9.10 257.13,8.97 257.06,8.83 256.99,8.69 256.93,8.54 256.88,8.39 256.83,8.24 256.80,8.08 256.77,7.92 256.74,7.75 256.73,7.59 256.72,7.42 256.73,7.25 256.74,7.08 256.76,6.91 256.79,6.73 256.82,6.56 256.87,6.39 256.93,6.22 256.99,6.05 257.07,5.88 257.15,5.72 257.24,5.55 257.34,5.39 257.45,5.24 257.57,5.09 257.70,4.94 257.83,4.80 257.98,4.67 258.13,4.54 258.29,4.41 258.45,4.30 258.63,4.19 258.81,4.09 259.00,4.00 259.19,3.91 259.39,3.84 259.59,3.78 259.80,3.72 260.02,3.68 260.24,3.64 260.46,3.62 260.68,3.61 260.91,3.60 261.14,3.61 261.37,3.64 261.60,3.67 261.83,3.71 262.07,3.77 262.30,3.84 262.52,3.92 262.75,4.02 262.97,4.12 263.19,4.24 263.41,4.37 263.62,4.52 263.82,4.67 264.02,4.84 264.22,5.01 264.40,5.20 264.58,5.40 264.75,5.61 264.91,5.83 265.06,6.06 265.19,6.30 265.32,6.55 265.44,6.80 265.54,7.07 265.64,7.34 265.72,7.62 265.78,7.91" fill="none" stroke="#D97757" stroke-width="1.8" stroke-linecap="round"/><circle cx="231" cy="8.0" r="1.4" fill="#D97757" opacity="0.51"/><circle cx="289" cy="8.0" r="1.4" fill="#D97757" opacity="0.51"/><circle cx="216" cy="8.0" r="1.4" fill="#D97757" opacity="0.47"/><circle cx="304" cy="8.0" r="1.4" fill="#D97757" opacity="0.47"/><circle cx="201" cy="8.0" r="1.4" fill="#D97757" opacity="0.44"/><circle cx="319" cy="8.0" r="1.4" fill="#D97757" opacity="0.44"/><circle cx="186" cy="8.0" r="1.4" fill="#D97757" opacity="0.40"/><circle cx="334" cy="8.0" r="1.4" fill="#D97757" opacity="0.40"/><circle cx="171" cy="8.0" r="1.4" fill="#D97757" opacity="0.36"/><circle cx="349" cy="8.0" r="1.4" fill="#D97757" opacity="0.36"/><circle cx="156" cy="8.0" r="1.4" fill="#D97757" opacity="0.32"/><circle cx="364" cy="8.0" r="1.4" fill="#D97757" opacity="0.32"/><circle cx="141" cy="8.0" r="1.4" fill="#D97757" opacity="0.28"/><circle cx="379" cy="8.0" r="1.4" fill="#D97757" opacity="0.28"/><circle cx="126" cy="8.0" r="1.4" fill="#D97757" opacity="0.25"/><circle cx="394" cy="8.0" r="1.4" fill="#D97757" opacity="0.25"/><circle cx="111" cy="8.0" r="1.4" fill="#D97757" opacity="0.21"/><circle cx="409" cy="8.0" r="1.4" fill="#D97757" opacity="0.21"/><circle cx="96" cy="8.0" r="1.4" fill="#D97757" opacity="0.17"/><circle cx="424" cy="8.0" r="1.4" fill="#D97757" opacity="0.17"/><circle cx="81" cy="8.0" r="1.4" fill="#D97757" opacity="0.13"/><circle cx="439" cy="8.0" r="1.4" fill="#D97757" opacity="0.13"/><circle cx="66" cy="8.0" r="1.4" fill="#D97757" opacity="0.09"/><circle cx="454" cy="8.0" r="1.4" fill="#D97757" opacity="0.09"/><circle cx="51" cy="8.0" r="1.4" fill="#D97757" opacity="0.08"/><circle cx="469" cy="8.0" r="1.4" fill="#D97757" opacity="0.08"/><circle cx="36" cy="8.0" r="1.4" fill="#D97757" opacity="0.08"/><circle cx="484" cy="8.0" r="1.4" fill="#D97757" opacity="0.08"/></svg>