<svg xmlns="http://www.w3.org/2000/svg" viewBox="0 0 16 16"><polyline points="8.73,8.00 8.73,8.04 8.74,8.07 8.74,8.11 8.74,8.15 8.74,8.19 8.73,8.23 8.73,8.27 8.72,8.30 8.71,8.34 8.70,8.38 8.68,8.42 8.67,8.46 8.65,8.49 8.63,8.53 8.61,8.57 8.58,8.60 8.56,8.64 8.53,8.67 8.50,8.70 8.47,8.73 8.44,8.76 8.40,8.79 8.36,8.81 8.33,8.84 8.29,8.86 8.25,8.88 8.20,8.90 8.16,8.92 8.11,8.93 8.07,8.95 8.02,8.96 7.97,8.97 7.92,8.97 7.87,8.98 7.82,8.98 7.77,8.98 7.72,8.97 7.67,8.96 7.62,8.96 7.57,8.94 7.52,8.93 7.47,8.91 7.42,8.89 7.37,8.87 7.32,8.84 7.27,8.82 7.22,8.79 7.18,8.75 7.13,8.72 7.09,8.68 7.05,8.64 7.01,8.60 6.97,8.55 6.94,8.50 6.90,8.45 6.87,8.40 6.84,8.35 6.82,8.29 6.79,8.23 6.77,8.17 6.76,8.11 6.74,8.05 6.73,7.99 6.72,7.93 6.71,7.86 6.71,7.79 6.71,7.73 6.71,7.66 6.72,7.59 6.73,7.53 6.75,7.46 6.76,7.39 6.79,7.32 6.81,7.26 6.84,7.19 6.87,7.13 6.91,7.06 6.95,7.00 6.99,6.94 7.03,6.88 7.08,6.82 7.13,6.77 7.19,6.71 7.25,6.66 7.31,6.62 7.37,6.57 7.44,6.53 7.51,6.49 7.58,6.45 7.66,6.42 7.74,6.39 7.82,6.37 7.90,6.34 7.98,6.33 8.06,6.31 8.15,6.30 8.24,6.30 8.32,6.30 8.41,6.30 8.50,6.31 8.59,6.32 8.68,6.34 8.77,6.36 8.86,6.38 8.95,6.41 9.03,6.45 9.12,6.49 9.20,6.54 9.29,6.58 9.37,6.64 9.45,6.70 9.52,6.76 9.60,6.83 9.67,6.90 9.74,6.97 9.80,7.05 9.86,7.14 9.92,7.23 9.97,7.32 10.02,7.41 10.07,7.51 10.11,7.61 10.15,7.71 10.18,7.82 10.20,7.93 10.22,8.04 10.24,8.15 10.25,8.26 10.25,8.38 10.25,8.50 10.24,8.61 10.23,8.73 10.21,8.85 10.18,8.97 10.15,9.08 10.11,9.20 10.07,9.32 10.02,9.43 9.96,9.54 9.90,9.65 9.83,9.76 9.75,9.87 9.67,9.97 9.59,10.07 9.49,10.17 9.40,10.26 9.29,10.34 9.18,10.43 9.07,10.51 8.95,10.58 8.83,10.65 8.70,10.71 8.57,10.77 8.44,10.82 8.30,10.86 8.16,10.90 8.01,10.93 7.86,10.95 7.71,10.96 7.56,10.97 7.41,10.97 7.26,10.97 7.10,10.95 6.94,10.93 6.79,10.90 6.63,10.86 6.48,10.81 6.33,10.76 6.17,10.69 6.02,10.62 5.88,10.54 5.73,10.45 5.59,10.36 5.45,10.25 5.32,10.14 5.19,10.02 5.07,9.90 4.95,9.77 4.84,9.63 4.73,9.48 4.63,9.32 4.54,9.16 4.45,9.00 4.38,8.83 4.31,8.65 4.25,8.47 4.19,8.29 4.15,8.10 4.12,7.90 4.09,7.71 4.08,7.51 4.07,7.30 4.08,7.10 4.09,6.90 4.12,6.69 4.15,6.49 4.20,6.28 4.26,6.08 4.33,5.87 4.41,5.67 4.50,5.47 4.60,5.28 4.71,5.08 4.83,4.90 4.96,4.71 5.11,4.53 5.26,4.36 5.42,4.20 5.59,4.04 5.78,3.88 5.97,3.74 6.17,3.61 6.37,3.48 6.59,3.36 6.81,3.26 7.04,3.16 7.28,3.08 7.52,3.00 7.77,2.94 8.02,2.89 8.28,2.85 8.54,2.83 8.81,2.81 9.08,2.81 9.34,2.83 9.62,2.86" fill="none" stroke="#D97757" stroke-width="2.6" stroke-linecap="round"/></svg>