<svg xmlns="http://www.w3.org/2000/svg" viewBox="0 0 24 24"><polyline points="12.65,12.00 12.65,12.03 12.66,12.07 12.66,12.10 12.66,12.13 12.66,12.17 12.66,12.20 12.65,12.24 12.64,12.27 12.64,12.31 12.63,12.34 12.61,12.38 12.60,12.41 12.59,12.44 12.57,12.48 12.55,12.51 12.53,12.54 12.50,12.57 12.48,12.60 12.45,12.63 12.43,12.66 12.40,12.69 12.36,12.72 12.33,12.74 12.30,12.76 12.26,12.78 12.22,12.80 12.18,12.82 12.14,12.84 12.10,12.85 12.06,12.87 12.02,12.88 11.97,12.88 11.93,12.89 11.88,12.90 11.84,12.90 11.79,12.90 11.74,12.89 11.70,12.89 11.65,12.88 11.60,12.87 11.55,12.86 11.51,12.84 11.46,12.83 11.41,12.81 11.37,12.78 11.32,12.76 11.28,12.73 11.24,12.70 11.19,12.67 11.15,12.63 11.11,12.59 11.08,12.56 11.04,12.51 11.01,12.47 10.97,12.42 10.94,12.38 10.92,12.33 10.89,12.27 10.87,12.22 10.85,12.16 10.83,12.11 10.81,12.05 10.80,11.99 10.79,11.93 10.78,11.87 10.78,11.81 10.78,11.74 10.78,11.68 10.79,11.61 10.80,11.55 10.81,11.48 10.83,11.42 10.84,11.36 10.87,11.29 10.89,11.23 10.92,11.17 10.96,11.11 10.99,11.04 11.03,10.99 11.07,10.93 11.12,10.87 11.17,10.82 11.22,10.77 11.28,10.72 11.34,10.67 11.40,10.62 11.46,10.58 11.53,10.54 11.60,10.51 11.67,10.47 11.74,10.44 11.82,10.42 11.90,10.39 11.98,10.38 12.06,10.36 12.14,10.35 12.23,10.34 12.32,10.34 12.40,10.34 12.49,10.35 12.58,10.36 12.66,10.37 12.75,10.39 12.84,10.42 12.93,10.45 13.01,10.48 13.10,10.52 13.18,10.56 13.27,10.61 13.35,10.66 13.43,10.72 13.50,10.78 13.58,10.84 13.65,10.91 13.72,10.99 13.78,11.06 13.85,11.15 13.91,11.23 13.96,11.32 14.01,11.41 14.06,11.51 14.10,11.61 14.14,11.71 14.17,11.82 14.20,11.93 14.22,12.04 14.24,12.15 14.25,12.26 14.26,12.38 14.26,12.50 14.25,12.62 14.24,12.73 14.22,12.85 14.20,12.97 14.17,13.09 14.13,13.21 14.09,13.33 14.04,13.45 13.98,13.56 13.92,13.67 13.85,13.79 13.78,13.90 13.70,14.00 13.61,14.10 13.52,14.20 13.42,14.30 13.32,14.39 13.21,14.48 13.09,14.56 12.97,14.64 12.85,14.71 12.72,14.78 12.59,14.84 12.45,14.89 12.31,14.94 12.16,14.98 12.01,15.01 11.86,15.04 11.71,15.06 11.55,15.07 11.39,15.07 11.23,15.07 11.07,15.05 10.91,15.03 10.74,15.00 10.58,14.97 10.42,14.92 10.26,14.87 10.10,14.80 9.94,14.73 9.79,14.65 9.63,14.56 9.48,14.46 9.34,14.36 9.20,14.24 9.06,14.12 8.93,13.99 8.80,13.85 8.68,13.71 8.56,13.55 8.46,13.39 8.35,13.23 8.26,13.05 8.18,12.87 8.10,12.69 8.03,12.50 7.97,12.30 7.92,12.10 7.88,11.90 7.85,11.69 7.83,11.48 7.82,11.26 7.82,11.04 7.84,10.82 7.86,10.60 7.90,10.38 7.94,10.16 8.00,9.94 8.07,9.72 8.15,9.50 8.24,9.29 8.35,9.08 8.46,8.87 8.59,8.66 8.73,8.46 8.88,8.26 9.04,8.08 9.22,7.89 9.40,7.72 9.59,7.55 9.80,7.39 10.01,7.24 10.24,7.10 10.47,6.97 10.71,6.85 10.96,6.74 11.21,6.64 11.48,6.55 11.75,6.48 12.02,6.42 12.31,6.37 12.59,6.34 12.88,6.32 13.18,6.32 13.47,6.33 13.77,6.35 14.07,6.40 14.37,6.45 14.68,6.52 14.97,6.61 15.27,6.72 15.57,6.84 15.86,6.97 16.14,7.12 16.43,7.29 16.70,7.47 16.97,7.67 17.23,7.89 17.48,8.11 17.73,8.36 17.96,8.62 18.18,8.89 18.39,9.17 18.59,9.47 18.77,9.78 18.94,10.11 19.10,10.44 19.24,10.78 19.36,11.14 19.47,11.50 19.56,11.88 19.63,12.26 19.68,12.64 19.72,13.04 19.73,13.44 19.72,13.84 19.70,14.24 19.65,14.65 19.58,15.06 19.49,15.47 19.38,15.88 19.25,16.28 19.09,16.69 18.92,17.08 18.72,17.48 18.50,17.86 18.26,18.24 18.00,18.61 17.72,18.97 17.42,19.32 17.09,19.65 16.75,19.98 16.39,20.29 16.01,20.58 15.61,20.85 15.19,21.11" fill="none" stroke="#D97757" stroke-width="2.3" stroke-linecap="round"/></svg>